HIERARCHY
ROOT hip
{
  OFFSET 0 0 0
  CHANNELS 6 Xposition Yposition Zposition Zrotation Yrotation Xrotation
  JOINT abdomen
  {
    OFFSET 0 20.6881 -0.73152
    CHANNELS 3 Zrotation Xrotation Yrotation
    JOINT chest
    {
      OFFSET 0 11.7043 -0.48768
      CHANNELS 3 Zrotation Xrotation Yrotation
      JOINT neck
      {
        OFFSET 0 22.1894 -2.19456
        CHANNELS 3 Zrotation Xrotation Yrotation
        JOINT head
        {
          OFFSET -0.24384 7.07133 1.2192
          CHANNELS 3 Zrotation Xrotation Yrotation
          JOINT leftEye
          {
            OFFSET 4.14528 8.04674 8.04672
            CHANNELS 3 Zrotation Xrotation Yrotation
            End Site
            {
              OFFSET 1 0 0
            }
          }
          JOINT rightEye
          {
            OFFSET -3.6576 8.04674 8.04672
            CHANNELS 3 Zrotation Xrotation Yrotation
            End Site
            {
              OFFSET 1 0 0
            }
          }
        }
      }
      JOINT rCollar
      {
        OFFSET -2.68224 19.2634 -4.8768
        CHANNELS 3 Zrotation Xrotation Yrotation
        JOINT rShldr
        {
          OFFSET -8.77824 -1.95073 1.46304
          CHANNELS 3 Zrotation Xrotation Yrotation
          JOINT rForeArm
          {
            OFFSET -28.1742 -1.7115 0.48768
            CHANNELS 3 Zrotation Xrotation Yrotation
            JOINT rHand
            {
              OFFSET -22.5879 0.773209 7.07136
              CHANNELS 3 Zrotation Xrotation Yrotation
              JOINT rThumb1
              {
                OFFSET -1.2192 -0.487915 3.41376
                CHANNELS 3 Zrotation Xrotation Yrotation
                JOINT rThumb2
                {
                  OFFSET -3.37035 -0.52449 3.41376
                  CHANNELS 3 Zrotation Xrotation Yrotation
                  End Site
                  {
                    OFFSET -1.78271 -1.18214 1.43049
                  }
                }
              }
              JOINT rIndex1
              {
                OFFSET -7.75947 0.938293 5.60832
                CHANNELS 3 Zrotation Xrotation Yrotation
                JOINT rIndex2
                {
                  OFFSET -2.54057 -0.884171 1.56538
                  CHANNELS 3 Zrotation Xrotation Yrotation
                  End Site
                  {
                    OFFSET -1.62519 -0.234802 1.16502
                  }
                }
              }
              JOINT rMid1
              {
                OFFSET -8.24714 1.18213 3.41376
                CHANNELS 3 Zrotation Xrotation Yrotation
                JOINT rMid2
                {
                  OFFSET -3.10165 -0.590103 1.0647
                  CHANNELS 3 Zrotation Xrotation Yrotation
                  End Site
                  {
                    OFFSET -2.48547 -0.328903 0.83742
                  }
                }
              }
              JOINT rRing1
              {
                OFFSET -8.82822 0.546677 1.51678
                CHANNELS 3 Zrotation Xrotation Yrotation
                JOINT rRing2
                {
                  OFFSET -2.60934 -0.819778 -0.0198488
                  CHANNELS 3 Zrotation Xrotation Yrotation
                  End Site
                  {
                    OFFSET -2.33842 -0.294052 0.168128
                  }
                }
              }
              JOINT rPinky1
              {
                OFFSET -8.27202 -0.0477905 -0.4584
                CHANNELS 3 Zrotation Xrotation Yrotation
                JOINT rPinky2
                {
                  OFFSET -1.82734 -0.647385 -0.700984
                  CHANNELS 3 Zrotation Xrotation Yrotation
                  End Site
                  {
                    OFFSET -1.69225 -0.51767 -0.607171
                  }
                }
              }
            }
          }
        }
      }
      JOINT lCollar
      {
        OFFSET 2.68224 19.2634 -4.8768
        CHANNELS 3 Zrotation Xrotation Yrotation
        JOINT lShldr
        {
          OFFSET 8.77824 -1.95073 1.46304
          CHANNELS 3 Zrotation Xrotation Yrotation
          JOINT lForeArm
          {
            OFFSET 28.1742 -1.7115 0.48768
            CHANNELS 3 Zrotation Xrotation Yrotation
            JOINT lHand
            {
              OFFSET 22.5879 0.773209 7.07136
              CHANNELS 3 Zrotation Xrotation Yrotation
              JOINT lThumb1
              {
                OFFSET 1.2192 -0.487915 3.41376
                CHANNELS 3 Zrotation Xrotation Yrotation
                JOINT lThumb2
                {
                  OFFSET 3.37035 -0.52449 3.41376
                  CHANNELS 3 Zrotation Xrotation Yrotation
                  End Site
                  {
                    OFFSET 1.78271 -1.18214 1.43049
                  }
                }
              }
              JOINT lIndex1
              {
                OFFSET 7.75947 0.938293 5.60832
                CHANNELS 3 Zrotation Xrotation Yrotation
                JOINT lIndex2
                {
                  OFFSET 2.54057 -0.884171 1.56538
                  CHANNELS 3 Zrotation Xrotation Yrotation
                  End Site
                  {
                    OFFSET 1.62519 -0.234802 1.16502
                  }
                }
              }
              JOINT lMid1
              {
                OFFSET 8.24714 1.18213 3.41376
                CHANNELS 3 Zrotation Xrotation Yrotation
                JOINT lMid2
                {
                  OFFSET 3.10165 -0.590103 1.0647
                  CHANNELS 3 Zrotation Xrotation Yrotation
                  End Site
                  {
                    OFFSET 2.48547 -0.328903 0.83742
                  }
                }
              }
              JOINT lRing1
              {
                OFFSET 8.82822 0.546677 1.51678
                CHANNELS 3 Zrotation Xrotation Yrotation
                JOINT lRing2
                {
                  OFFSET 2.60934 -0.819778 -0.0198488
                  CHANNELS 3 Zrotation Xrotation Yrotation
                  End Site
                  {
                    OFFSET 2.33842 -0.294052 0.168128
                  }
                }
              }
              JOINT lPinky1
              {
                OFFSET 8.27202 -0.0477905 -0.4584
                CHANNELS 3 Zrotation Xrotation Yrotation
                JOINT lPinky2
                {
                  OFFSET 1.82734 -0.647385 -0.700984
                  CHANNELS 3 Zrotation Xrotation Yrotation
                  End Site
                  {
                    OFFSET 1.69225 -0.51767 -0.607171
                  }
                }
              }
            }
          }
        }
      }
    }
  }
  JOINT rButtock
  {
    OFFSET -8.77824 4.35084 1.2192
    CHANNELS 3 Zrotation Xrotation Yrotation
    JOINT rThigh
    {
      OFFSET 0 -1.70687 -2.19456
      CHANNELS 3 Zrotation Xrotation Yrotation
      JOINT rShin
      {
        OFFSET 0 -36.8199 0.73152
        CHANNELS 3 Zrotation Xrotation Yrotation
        JOINT rFoot
        {
          OFFSET 0.73152 -45.1104 -5.12064
          CHANNELS 3 Zrotation Xrotation Yrotation
          End Site
          {
            OFFSET -1.1221 -3.69964 12.103
          }
        }
      }
    }
  }
  JOINT lButtock
  {
    OFFSET 8.77824 4.35084 1.2192
    CHANNELS 3 Zrotation Xrotation Yrotation
    JOINT lThigh
    {
      OFFSET 0 -1.70687 -2.19456
      CHANNELS 3 Zrotation Xrotation Yrotation
      JOINT lShin
      {
        OFFSET 0 -36.8199 0.73152
        CHANNELS 3 Zrotation Xrotation Yrotation
        JOINT lFoot
        {
          OFFSET -0.73152 -45.1104 -5.12064
          CHANNELS 3 Zrotation Xrotation Yrotation
          End Site
          {
            OFFSET 1.1221 -3.69964 12.103
          }
        }
      }
    }
  }
}
MOTION
Frames:	8
Frame Time:	0.00833333
-211.968 83.185 0.816818 0.0 0.0 0.0 -3.13123 0.0020855 -0.0845037 -0.863235 0.0181967 -0.149332 3.71365e-15 -7.95139e-16 -7.45443e-16 1.16724e-14 3.18055e-15 -2.18974e-15 -0.0 0.0 0.0 -0.0 0.0 0.0 2.28547e-15 1.21523e-16 -9.93923e-17 4.32836e-14 2.05618e-15 -6.16232e-15 7.34708e-13 -1.26427e-13 -1.68569e-13 8.22266e-12 6.48535e-13 -1.39626e-12 1.94268e-11 1.1366e-12 -3.37457e-12 3.3531e-11 1.96876e-12 -5.82201e-12 1.94352e-11 1.13983e-12 -3.37457e-12 7.73091 5.47488 0.417314 1.94271e-11 1.13715e-12 -3.37139e-12 2.90554 0.965183 0.102902 1.94351e-11 1.13705e-12 -3.3698e-12 10.2786 0.731801 0.0259123 1.94238e-11 1.13665e-12 -3.36503e-12 2.22167 -0.733487 -0.20892 2.1873e-15 1.26958e-16 -4.96962e-16 3.9442e-14 2.43511e-15 -7.7526e-15 7.09164e-13 2.97183e-13 -1.145e-13 8.24197e-12 2.32007e-13 -1.42807e-12 1.94147e-11 1.14663e-12 -3.36503e-12 3.35465e-11 1.98467e-12 -5.81564e-12 1.94085e-11 1.14977e-12 -3.35549e-12 -7.73091 5.47488 -0.417314 1.94131e-11 1.14748e-12 -3.36821e-12 -2.90554 0.965183 -0.102902 1.94143e-11 1.14719e-12 -3.36741e-12 -10.2786 0.731801 -0.0259123 1.94173e-11 1.14778e-12 -3.37775e-12 -2.22167 -0.733487 0.20892 -2.03217e-16 0.0 -3.88251e-19 -1.9184 -1.93503 0.0146181 -0.00850349 -2.07867 -0.0697864 -0.459072 4.0001 0.132519 2.03217e-16 0.0 3.88251e-19 -2.83783 -9.3263 0.322324 -0.00902742 11.308 -0.235103 0.526932 -1.99513 -0.0183198
-205.855 81.1191 -5.89501 59.6531 85.821 63.9368 -5.90365 -0.124479 1.11792 -0.437855 1.25472 0.146335 -3.46854 3.59156 -2.31736 8.64413 -9.0149 -1.96448 -0.0 0.0 0.0 -0.0 0.0 0.0 -8.63025e-14 3.42311e-13 4.78062e-14 23.3122 11.8588 -2.53618 -20.2964 -18.0653 15.1576 0.160242 -9.11992 -1.23001 1.83784e-09 3.39533e-10 2.31769e-09 3.10472e-09 5.90348e-10 4.05057e-09 1.83785e-09 3.39535e-10 2.31769e-09 7.73091 5.47488 0.417314 1.83784e-09 3.39533e-10 2.3177e-09 2.90554 0.965183 0.102902 1.83785e-09 3.39533e-10 2.3177e-09 10.2786 0.731801 0.0259123 1.83783e-09 3.39534e-10 2.3177e-09 2.22167 -0.733487 -0.20892 -8.63666e-14 3.42311e-13 4.74983e-14 -22.6142 17.7349 -0.811452 23.1948 -21.067 -14.8504 -0.00340069 -1.68978 0.237531 9.18991e-10 2.50792e-09 -3.21062e-09 1.60493e-09 4.33738e-09 -5.54507e-09 9.18986e-10 2.50792e-09 -3.21061e-09 -7.73091 5.47488 -0.417314 9.1899e-10 2.50792e-09 -3.21062e-09 -2.90554 0.965183 -0.102902 9.1899e-10 2.50792e-09 -3.21062e-09 -10.2786 0.731801 -0.0259123 9.18995e-10 2.50792e-09 -3.21064e-09 -2.22167 -0.733487 0.20892 -2.03217e-16 0.0 -3.88251e-19 -4.99781 -6.28474 -1.08509 0.0578178 11.263 0.163693 -1.1529 -3.8043 -3.2723 2.03217e-16 0.0 3.88251e-19 -3.01204 -8.95958 1.16717 -0.0243846 17.8281 -0.350627 1.1855 -9.39744 3.1104
-205.562 80.9734 -5.85625 57.3914 85.521 61.7431 -8.79382 -0.28968 2.40169 -0.00669379 2.54583 0.46401 -6.82515 7.43466 -4.79767 17.0833 -18.5124 -4.22101 -0.0 0.0 0.0 -0.0 0.0 0.0 -1.85726e-13 6.75797e-13 9.79387e-14 49.1907 24.2879 -5.62565 -30.2163 -32.661 35.9434 -0.121083 -18.5006 -2.60836 3.88713e-09 7.20602e-10 4.89544e-09 6.56664e-09 1.25306e-09 8.55684e-09 3.88714e-09 7.20603e-10 4.89543e-09 7.73091 5.47488 0.417314 3.88713e-09 7.20603e-10 4.89544e-09 2.90554 0.965183 0.102902 3.88714e-09 7.20602e-10 4.89544e-09 10.2786 0.731801 0.0259123 3.88713e-09 7.20604e-10 4.89544e-09 2.22167 -0.733487 -0.20892 -1.8575e-13 6.75792e-13 9.77306e-14 -45.8977 36.4934 -1.88208 33.6605 -38.1871 -37.3327 0.00965007 -3.35005 0.4719 1.91184e-09 5.31856e-09 -6.79127e-09 3.33971e-09 9.19834e-09 -1.17293e-08 1.91183e-09 5.31856e-09 -6.79126e-09 -7.73091 5.47488 -0.417314 1.91184e-09 5.31856e-09 -6.79127e-09 -2.90554 0.965183 -0.102902 1.91183e-09 5.31856e-09 -6.79127e-09 -10.2786 0.731801 -0.0259123 1.91184e-09 5.31856e-09 -6.79128e-09 -2.22167 -0.733487 0.20892 -2.03217e-16 0.0 -3.88251e-19 -8.40236 -10.8394 -2.25054 1.01709e-05 25.2965 0.446618 -2.92289 -11.968 -7.05013 2.03217e-16 0.0 3.88251e-19 -3.18856 -8.58277 2.04474 -0.00838306 24.726 -0.487247 2.79333 -17.1315 6.61859
-205.261 80.8305 -5.79075 54.4933 85.2687 58.9199 -11.4326 -0.376967 3.52285 0.374559 3.72748 0.739128 -9.52332 10.7036 -7.06191 23.8905 -26.9095 -6.5303 -0.0 0.0 0.0 -0.0 0.0 0.0 -2.63479e-13 1.02669e-12 1.43617e-13 73.6747 35.2651 -9.13256 -29.8645 -37.2029 59.2211 -0.818158 -27.306 -4.101 5.47466e-09 1.01633e-09 6.95983e-09 9.24709e-09 1.76711e-09 1.21633e-08 5.47467e-09 1.01633e-09 6.95983e-09 7.73091 5.47488 0.417314 5.47466e-09 1.01633e-09 6.95983e-09 2.90554 0.965183 0.102902 5.47467e-09 1.01633e-09 6.95983e-09 10.2786 0.731801 0.0259123 5.47466e-09 1.01633e-09 6.95984e-09 2.22167 -0.733487 -0.20892 -2.63475e-13 1.02668e-12 1.43489e-13 -65.4874 53.147 -3.86784 30.8202 -42.8182 -64.6304 0.0319692 -5.06899 0.715079 2.71814e-09 7.52146e-09 -9.62514e-09 4.74769e-09 1.30082e-08 -1.66236e-08 2.71814e-09 7.52146e-09 -9.62513e-09 -7.73091 5.47488 -0.417314 2.71814e-09 7.52146e-09 -9.62514e-09 -2.90554 0.965183 -0.102902 2.71814e-09 7.52146e-09 -9.62514e-09 -10.2786 0.731801 -0.0259123 2.71815e-09 7.52145e-09 -9.62515e-09 -2.22167 -0.733487 0.20892 -2.03217e-16 0.0 -3.88251e-19 -11.6728 -14.9626 -3.37964 -0.202992 37.9439 0.787599 -5.43316 -19.1213 -10.6537 2.03217e-16 0.0 3.88251e-19 -3.39322 -8.22127 2.85199 0.0380042 30.8676 -0.629452 5.1131 -23.9084 10.1187
-204.998 80.6376 -5.76872 53.8246 84.8173 58.3893 -13.4603 -0.270472 4.23739 0.658359 4.6358 0.906443 -11.2295 12.6077 -8.67216 28.1406 -32.6872 -8.36142 -0.0 0.0 0.0 -0.0 0.0 0.0 -2.87056e-13 1.42109e-12 1.78161e-13 91.8497 42.911 -12.2696 -28.4056 -34.4066 74.3667 -1.74752 -34.7128 -5.58726 5.90779e-09 1.09868e-09 7.74086e-09 9.97387e-09 1.90949e-09 1.35204e-08 5.90779e-09 1.09868e-09 7.74085e-09 7.73091 5.47488 0.417314 5.90779e-09 1.09868e-09 7.74086e-09 2.90554 0.965183 0.102902 5.9078e-09 1.09868e-09 7.74086e-09 10.2786 0.731801 0.0259123 5.90778e-09 1.09869e-09 7.74087e-09 2.22167 -0.733487 -0.20892 -2.87053e-13 1.42108e-12 1.78061e-13 -76.748 64.5367 -7.66744 28.2696 -38.6266 -81.4942 0.0593467 -6.93471 0.979445 3.05811e-09 8.205e-09 -1.05921e-08 5.33871e-09 1.41901e-08 -1.82933e-08 3.0581e-09 8.205e-09 -1.05921e-08 -7.73091 5.47488 -0.417314 3.05811e-09 8.205e-09 -1.05921e-08 -2.90554 0.965183 -0.102902 3.0581e-09 8.20499e-09 -1.05921e-08 -10.2786 0.731801 -0.0259123 3.05812e-09 8.20499e-09 -1.05921e-08 -2.22167 -0.733487 0.20892 -2.03217e-16 0.0 -3.88251e-19 -14.2658 -18.0245 -4.33975 -0.488117 47.1284 1.13705 -7.66653 -24.0521 -13.2202 2.03217e-16 0.0 3.88251e-19 -3.64794 -7.90105 3.4864 0.0908184 35.119 -0.746173 7.3278 -28.5623 12.9144
-204.767 80.3234 -5.7789 53.904 84.2652 58.65 -14.671 0.1474 4.3519 0.828166 5.21743 0.91167 -11.8233 12.4863 -9.29888 29.6313 -34.8683 -9.02663 -0.0 0.0 0.0 -0.0 0.0 0.0 -2.23078e-13 2.03104e-12 2.04284e-13 99.2451 46.3063 -13.4182 -28.3239 -32.2669 79.4905 -2.6433 -40.5252 -6.92838 4.37527e-09 8.26138e-10 6.47821e-09 7.37124e-09 1.43338e-09 1.12897e-08 4.37527e-09 8.26137e-10 6.47818e-09 7.73091 5.47488 0.417314 4.37526e-09 8.26139e-10 6.4782e-09 2.90554 0.965183 0.102902 4.37527e-09 8.26139e-10 6.47821e-09 10.2786 0.731801 0.0259123 4.37526e-09 8.26141e-10 6.47821e-09 2.22167 -0.733487 -0.20892 -2.23126e-13 2.03104e-12 2.04133e-13 -78.0618 68.4683 -12.4776 28.1911 -35.7606 -86.5979 0.0961994 -9.09708 1.28787 2.68667e-09 6.3668e-09 -8.50351e-09 4.68088e-09 1.10105e-08 -1.46852e-08 2.68666e-09 6.3668e-09 -8.5035e-09 -7.73091 5.47488 -0.417314 2.68667e-09 6.3668e-09 -8.50351e-09 -2.90554 0.965183 -0.102902 2.68666e-09 6.36679e-09 -8.50351e-09 -10.2786 0.731801 -0.0259123 2.68667e-09 6.36679e-09 -8.50352e-09 -2.22167 -0.733487 0.20892 -2.03217e-16 0.0 -3.88251e-19 -15.7661 -19.5929 -5.03074 -0.676256 51.4597 1.34069 -8.46341 -26.1675 -13.8499 2.03217e-16 0.0 3.88251e-19 -3.96487 -7.6299 3.91148 0.113674 36.7235 -0.80076 8.40778 -30.4688 14.1887
-204.421 80.2644 -5.75408 52.7312 83.8432 57.5484 -15.2898 0.786237 4.03969 0.919832 5.56312 0.801209 -11.6757 10.9378 -9.21251 29.3793 -34.5134 -8.69934 -0.0 0.0 0.0 -0.0 0.0 0.0 -9.71168e-14 2.78759e-12 2.24052e-13 98.3126 46.7502 -12.6288 -28.3241 -32.797 79.4562 -3.45976 -45.1877 -8.14716 1.45534e-09 3.02764e-10 3.76753e-09 2.41877e-09 5.20175e-10 6.51719e-09 1.45534e-09 3.02763e-10 3.76749e-09 7.73091 5.47488 0.417314 1.45534e-09 3.02765e-10 3.76753e-09 2.90554 0.965183 0.102902 1.45535e-09 3.02767e-10 3.76753e-09 10.2786 0.731801 0.0259123 1.45534e-09 3.02767e-10 3.76754e-09 2.22167 -0.733487 -0.20892 -9.72514e-14 2.7876e-12 2.23791e-13 -74.7634 67.1324 -15.6358 28.1563 -36.2079 -86.2933 0.153506 -11.4665 1.63115 1.80987e-09 2.74614e-09 -4.2535e-09 3.13602e-09 4.74798e-09 -7.34365e-09 1.80986e-09 2.74614e-09 -4.2535e-09 -7.73091 5.47488 -0.417314 1.80987e-09 2.74614e-09 -4.2535e-09 -2.90554 0.965183 -0.102902 1.80986e-09 2.74614e-09 -4.2535e-09 -10.2786 0.731801 -0.0259123 1.80987e-09 2.74614e-09 -4.25352e-09 -2.22167 -0.733487 0.20892 -2.03217e-16 0.0 -3.88251e-19 -16.437 -20.0996 -5.50864 -0.704443 52.326 1.3617 -7.97778 -26.3285 -12.9487 2.03217e-16 0.0 3.88251e-19 -4.32438 -7.39454 4.18582 0.104057 36.4377 -0.802705 8.40776 -30.4806 14.2126
-204.116 80.0202 -5.7288 52.1361 83.4212 56.9847 -15.6096 1.44914 3.60641 0.964839 5.72526 0.66058 -11.2364 9.07842 -8.84031 28.4597 -33.1954 -7.97409 -0.0 0.0 0.0 -0.0 0.0 0.0 3.49007e-14 3.35536e-12 2.29807e-13 94.1593 45.7773 -11.2464 -28.3555 -34.4458 77.3427 -4.21436 -48.8516 -9.24341 -1.46036e-09 -2.31029e-10 8.72819e-10 -2.52282e-09 -4.10823e-10 1.42969e-09 -1.46036e-09 -2.31032e-10 8.72762e-10 7.73091 5.47488 0.417314 -1.46036e-09 -2.31029e-10 8.72816e-10 2.90554 0.965183 0.102902 -1.46035e-09 -2.31026e-10 8.72818e-10 10.2786 0.731801 0.0259123 -1.46036e-09 -2.31027e-10 8.72829e-10 2.22167 -0.733487 -0.20892 3.46799e-14 3.35538e-12 2.29431e-13 -70.6926 63.8863 -17.1591 28.1455 -37.9644 -83.7388 0.230566 -13.7718 1.97232 8.24561e-10 -9.5607e-10 1.54269e-10 1.40449e-09 -1.65555e-09 2.7004e-10 8.24556e-10 -9.56068e-10 1.54272e-10 -7.73091 5.47488 -0.417314 8.24564e-10 -9.56069e-10 1.54267e-10 -2.90554 0.965183 -0.102902 8.24555e-10 -9.5607e-10 1.54267e-10 -10.2786 0.731801 -0.0259123 8.24564e-10 -9.56069e-10 1.54258e-10 -2.22167 -0.733487 0.20892 -2.03217e-16 0.0 -3.88251e-19 -16.739 -20.2142 -5.86233 -0.658105 51.8185 1.29924 -6.98527 -25.5924 -11.441 2.03217e-16 0.0 3.88251e-19 -4.69932 -7.18941 4.34962 0.0812817 35.3971 -0.783166 7.97973 -29.7089 13.7698
